<?xml version="1.0" standalone="no"?>
<!DOCTYPE svg PUBLIC "-//W3C//DTD SVG 20010904//EN"
 "http://www.w3.org/TR/2001/REC-SVG-20010904/DTD/svg10.dtd">
<svg version="1.0" xmlns="http://www.w3.org/2000/svg"
 width="2100.000000pt" height="439.000000pt" viewBox="0 0 2100.000000 439.000000"
 preserveAspectRatio="xMidYMid meet">

<g transform="translate(0.000000,439.000000) scale(0.100000,-0.100000)"
fill="#000000" stroke="none">
<path d="M2245 4384 c-545 -54 -991 -201 -1505 -497 -215 -123 -531 -340 -597
-409 -80 -84 -102 -221 -52 -329 49 -103 140 -167 252 -176 108 -9 125 -1 376
176 386 273 797 468 1174 560 343 83 694 87 1023 11 390 -91 789 -300 1189
-623 141 -114 177 -132 275 -131 128 0 231 66 283 182 29 66 28 170 -2 237
-28 64 -59 96 -201 210 -534 427 -1079 681 -1636 765 -133 20 -478 34 -579 24z"/>
<path d="M13080 4379 c-575 -57 -1145 -279 -1740 -675 -269 -180 -343 -247
-369 -335 -16 -52 -13 -148 5 -202 34 -99 145 -184 254 -194 98 -9 147 9 288
110 178 127 326 222 472 303 881 492 1671 517 2473 77 126 -69 377 -240 526
-358 74 -58 150 -113 170 -122 58 -26 185 -23 243 6 63 30 119 86 149 147 19
39 24 65 24 129 0 147 -36 193 -320 407 -518 390 -1006 607 -1550 689 -152 23
-481 33 -625 18z"/>
<path d="M9737 4260 c-63 -16 -113 -47 -157 -97 -28 -33 -311 -549 -884 -1616
-464 -863 -846 -1569 -850 -1570 -4 -1 -386 705 -850 1568 -750 1398 -849
1576 -897 1626 -86 88 -203 113 -323 69 -136 -51 -222 -216 -183 -355 20 -76
1990 -3731 2035 -3778 59 -61 128 -89 217 -89 89 0 157 28 217 89 26 27 333
588 1025 1873 543 1009 995 1860 1006 1890 49 140 -28 309 -168 371 -51 23
-137 31 -188 19z"/>
<path d="M18660 4251 c-51 -16 -106 -50 -141 -85 -46 -46 -2022 -3717 -2040
-3789 -35 -141 56 -307 192 -352 115 -39 231 -13 314 69 45 45 109 159 510
906 974 1813 1232 2292 1239 2293 4 1 390 -709 857 -1578 768 -1429 853 -1584
899 -1627 82 -76 198 -100 309 -63 136 45 227 211 192 352 -18 71 -1994 3743
-2040 3789 -68 69 -212 111 -291 85z"/>
<path d="M214 2486 c-190 -60 -271 -289 -162 -459 36 -57 112 -111 178 -127
32 -7 395 -10 1215 -8 l1170 3 42 23 c112 60 173 157 173 277 0 120 -61 217
-173 277 l-42 23 -1180 2 c-941 1 -1188 -1 -1221 -11z"/>
<path d="M13126 2483 c-66 -23 -147 -98 -176 -165 -17 -39 -23 -72 -23 -123 0
-94 29 -160 98 -223 94 -87 36 -82 1045 -82 l888 0 6 -132 c3 -73 8 -212 11
-309 l5 -175 -135 -100 c-801 -589 -1569 -711 -2416 -383 -245 95 -554 264
-800 437 -60 42 -137 96 -171 120 -175 123 -378 79 -468 -100 -24 -50 -30 -74
-30 -128 0 -142 50 -209 267 -360 654 -453 1257 -694 1873 -750 762 -68 1540
207 2285 808 96 77 114 97 145 157 l35 68 0 626 c0 344 -3 638 -7 652 -12 41
-86 117 -142 147 l-51 27 -1095 2 c-989 2 -1100 0 -1144 -14z"/>
<path d="M18642 1770 c-147 -31 -263 -135 -312 -281 -34 -98 -26 -204 23 -302
44 -90 103 -147 195 -190 62 -30 75 -32 172 -32 97 0 110 2 170 31 82 40 136
87 177 155 159 265 -13 600 -319 623 -35 3 -82 1 -106 -4z"/>
<path d="M285 1406 c-163 -52 -256 -213 -212 -367 29 -97 64 -137 225 -252
602 -430 1145 -666 1752 -760 198 -30 566 -30 769 2 540 83 1016 296 1551 694
257 192 307 262 298 412 -11 168 -139 282 -313 279 -82 -1 -129 -25 -260 -129
-471 -374 -902 -580 -1365 -652 -156 -24 -452 -24 -610 1 -493 75 -980 295
-1514 684 -134 98 -218 121 -321 88z"/>
</g>
</svg>
