<?xml version="1.0" standalone="no"?>
<!DOCTYPE svg PUBLIC "-//W3C//DTD SVG 20010904//EN"
 "http://www.w3.org/TR/2001/REC-SVG-20010904/DTD/svg10.dtd">
<svg version="1.0" xmlns="http://www.w3.org/2000/svg"
 width="880.000000pt" height="193.000000pt" viewBox="0 0 880.000000 193.000000"
 preserveAspectRatio="xMidYMid meet">

<g transform="translate(0.000000,193.000000) scale(0.100000,-0.100000)"
fill="#000000" stroke="none">
<path d="M1576 1402 c6 -4 153 -106 327 -226 303 -210 316 -221 300 -238 -9
-10 -33 -28 -52 -40 -20 -12 -157 -106 -306 -208 l-270 -185 212 -3 212 -2
268 183 c147 102 294 202 325 223 31 22 56 43 55 47 -1 4 -148 109 -326 232
l-324 225 -216 0 c-119 0 -211 -4 -205 -8z"/>
<path d="M2860 1396 c-8 -7 -86 -62 -173 -121 l-157 -108 105 -73 c57 -41 107
-74 110 -74 3 0 123 82 268 182 144 100 271 187 282 195 16 11 -14 13 -201 13
-173 0 -223 -3 -234 -14z"/>
<path d="M3380 955 l0 -455 155 0 155 0 0 455 0 455 -155 0 -155 0 0 -455z"/>
<path d="M3790 1300 l0 -110 518 0 518 0 144 101 c80 56 149 105 155 110 5 5
-272 9 -663 9 l-672 0 0 -110z"/>
<path d="M5315 1335 c61 -42 133 -92 160 -111 159 -113 368 -254 376 -254 23
0 4 -28 -39 -57 -26 -17 -108 -73 -182 -125 -75 -51 -198 -136 -274 -188
l-138 -95 211 -3 211 -2 92 62 c50 35 184 126 298 203 113 77 220 151 238 163
l33 24 -53 37 c-29 20 -109 75 -178 122 -69 48 -194 134 -279 193 l-154 106
-216 0 -215 0 109 -75z"/>
<path d="M6355 1293 c-93 -65 -169 -122 -168 -128 0 -13 196 -146 208 -141 9
3 544 372 554 382 2 2 -92 4 -210 4 l-214 0 -170 -117z"/>
<path d="M3790 935 l0 -105 426 0 426 0 137 96 c75 53 140 100 146 105 5 5
-230 9 -563 9 l-572 0 0 -105z"/>
<path d="M2643 819 c-57 -39 -103 -74 -103 -79 0 -5 12 -17 28 -27 15 -10 91
-62 168 -115 l142 -98 212 2 211 3 -252 175 c-139 96 -264 183 -278 192 -26
17 -27 16 -128 -53z"/>
<path d="M6285 819 c-55 -38 -101 -73 -102 -77 -2 -4 73 -60 166 -125 l169
-117 213 2 212 3 -109 76 c-60 42 -138 97 -174 121 -36 25 -111 77 -168 116
-57 40 -104 72 -105 72 -1 -1 -47 -32 -102 -71z"/>
</g>
</svg>
